<svg t="1665739936290" class="icon" viewBox="0 0 1024 1024" version="1.1"
    xmlns="http://www.w3.org/2000/svg" p-id="11037"
    xmlns:xlink="http://www.w3.org/1999/xlink" width="200" height="200">
    <path d="M490.666667 85.333333c-85.333333 0-166.4 25.6-238.933334 68.266667-12.8 8.533333-12.8 25.6-4.266666 38.4 8.533333 12.8 25.6 17.066667 34.133333 8.533333 0 0 183.466667-136.533333 448 0 12.8 8.533333 29.866667 4.266667 38.4-8.533333 8.533333-12.8 4.266667-29.866667-8.533333-34.133333h-4.266667c-64-34.133333-128-55.466667-200.533333-64-21.333333-8.533333-42.666667-8.533333-64-8.533334m17.066666 110.933334C358.4 196.266667 213.333333 273.066667 132.266667 396.8c-8.533333 12.8-4.266667 29.866667 8.533333 38.4 12.8 8.533333 29.866667 4.266667 38.4-8.533333 72.533333-110.933333 196.266667-174.933333 328.533333-174.933334 132.266667 0 251.733333 64 324.266667 174.933334 8.533333 12.8 25.6 17.066667 38.4 8.533333 12.8-8.533333 17.066667-25.6 8.533333-38.4-85.333333-123.733333-221.866667-200.533333-371.2-200.533333m-29.866666 106.666666c-72.533333 4.266667-136.533333 29.866667-192 72.533334-102.4 85.333333-166.4 238.933333-93.866667 443.733333 4.266667 12.8 21.333333 21.333333 34.133333 17.066667 12.8-4.266667 21.333333-21.333333 17.066667-34.133334-64-192-8.533333-315.733333 81.066667-388.266666 102.4-72.533333 234.666667-81.066667 341.333333-17.066667 55.466667 38.4 93.866667 89.6 119.466667 149.333333 21.333333 42.666667 21.333333 93.866667 4.266666 140.8-21.333333 25.6-55.466667 38.4-85.333333 29.866667-38.4-8.533333-64-42.666667-59.733333-81.066667 0-64-51.2-119.466667-119.466667-123.733333-64-8.533333-123.733333 29.866667-140.8 93.866667-34.133333 123.733333 46.933333 302.933333 238.933333 358.4 12.8 4.266667 29.866667-4.266667 34.133334-17.066667 4.266667-12.8-4.266667-29.866667-17.066667-34.133333-162.133333-51.2-226.133333-204.8-200.533333-298.666667 8.533333-38.4 46.933333-59.733333 85.333333-51.2 38.4 0 68.266667 34.133333 68.266667 72.533333 0 59.733333 42.666667 115.2 98.133333 132.266667 55.466667 17.066667 110.933333-4.266667 145.066667-51.2 29.866667-59.733333 29.866667-128 4.266666-187.733333-25.6-72.533333-76.8-136.533333-140.8-179.2-72.533333-34.133333-149.333333-51.2-221.866666-46.933334m17.066666 102.4c-85.333333 4.266667-162.133333 51.2-196.266666 128-46.933333 93.866667-42.666667 200.533333 8.533333 294.4 21.333333 46.933333 55.466667 89.6 89.6 132.266667 8.533333 8.533333 25.6 12.8 38.4 0 8.533333-8.533333 12.8-25.6 0-38.4-29.866667-34.133333-59.733333-72.533333-81.066667-115.2-42.666667-76.8-46.933333-166.4-8.533333-243.2 38.4-76.8 128-115.2 209.066667-89.6 85.333333 21.333333 140.8 98.133333 136.533333 187.733333 0 12.8 8.533333 25.6 21.333333 29.866667 17.066667 0 29.866667-12.8 29.866667-25.6 4.266667-110.933333-68.266667-209.066667-174.933333-238.933333-25.6-17.066667-51.2-21.333333-72.533334-21.333334m8.533334 213.333334c-12.8 0-25.6 12.8-25.6 25.6 4.266667 42.666667 12.8 85.333333 34.133333 123.733333 34.133333 59.733333 110.933333 119.466667 243.2 106.666667 12.8 0 25.6-12.8 25.6-29.866667 0-12.8-12.8-25.6-29.866667-25.6-115.2 8.533333-166.4-34.133333-192-81.066667-17.066667-29.866667-25.6-64-29.866666-98.133333 0-8.533333-12.8-21.333333-25.6-21.333333z" p-id="11038" fill="#1296db"></path>
</svg>
